<svg xmlns="http://www.w3.org/2000/svg" xmlns:xlink="http://www.w3.org/1999/xlink" xmlns:svgjs="http://svgjs.dev/svgjs" version="1.1" width="200" height="150" viewBox="0 0 2000 1500"><rect width="2000" height="1500" fill="#000000"/><g transform="matrix(0.45351473922902497,0,0,0.45351473922902497,547.3865975958026,250.40485829959516)"><svg xmlns="http://www.w3.org/2000/svg" xmlns:xlink="http://www.w3.org/1999/xlink" viewBox="0 0 224 247" data-background-color="#000000" preserveAspectRatio="xMidYMid meet" height="2205" width="2000"><g id="tight-bounds" transform="matrix(1,0,0,1,-0.22259414225942464,-0.09999999999999432)"><svg viewBox="0 0 224.44518828451882 247.2" height="247.2" width="224.44518828451882"><g><svg viewBox="0 0 224.44518828451882 247.2" height="247.2" width="224.44518828451882"><g><svg viewBox="0 0 224.44518828451882 247.2" height="247.2" width="224.44518828451882"><g id="textblocktransform"><svg viewBox="0 0 224.44518828451882 247.2" height="247.2" width="224.44518828451882" id="textblock"><g><svg viewBox="0 0 224.44518828451882 247.2" height="247.2" width="224.44518828451882"><g transform="matrix(1,0,0,1,0,0)"><svg width="224.44518828451882" viewBox="3.69 -35.01 31.779999999999998 35.01" height="247.2" data-palette-color="url(#7b3dcc4b-8ae3-43ef-a9fd-1fdf7e6f1e80)"><g class="wordmark-text-0" data-fill-palette-color="primary" id="text-0"/></svg></g></svg></g></svg></g></svg></g></svg></g><defs/><mask id="5697e3fb-9b1b-42ed-a092-d2e52bcb3d70"><g id="SvgjsG6498"><svg viewBox="0 0 224.44518828451882 247.2" height="247.2" width="224.44518828451882"><g><svg viewBox="0 0 224.44518828451882 247.2" height="247.2" width="224.44518828451882"><g><svg viewBox="0 0 224.44518828451882 247.2" height="247.2" width="224.44518828451882"><g id="SvgjsG6497"><svg viewBox="0 0 224.44518828451882 247.2" height="247.2" width="224.44518828451882" id="SvgjsSvg6496"><g><svg viewBox="0 0 224.44518828451882 247.2" height="247.2" width="224.44518828451882"><g transform="matrix(1,0,0,1,0,0)"><svg width="224.44518828451882" viewBox="3.69 -35.01 31.779999999999998 35.01" height="247.2" data-palette-color="url(#7b3dcc4b-8ae3-43ef-a9fd-1fdf7e6f1e80)"><g class="wordmark-text-0" data-fill-palette-color="primary" id="SvgjsG6495"><path d="M32.64-20.7L32.64-14.31 12.57-14.31 12.57-20.7 32.64-20.7ZM35.47-35.01L35.47-28.66 10.03-28.66 10.03 0 3.69 0 3.69-31.81Q3.69-32.47 3.93-33.06 4.17-33.64 4.6-34.08 5.03-34.52 5.62-34.77 6.2-35.01 6.88-35.01L6.88-35.01 35.47-35.01Z" fill="white"/></g></svg></g></svg></g></svg></g></svg></g></svg></g><defs><mask/></defs></svg><rect width="224.44518828451882" height="247.2" fill="black" stroke="none" visibility="hidden"/></g></mask><linearGradient x1="0" x2="1" y1="0.548" y2="0.55" id="7b3dcc4b-8ae3-43ef-a9fd-1fdf7e6f1e80"><stop stop-color="#ff6cab" offset="0"/><stop stop-color="#7366ff" offset="1"/></linearGradient><rect width="224.44518828451882" height="247.2" fill="url(#7b3dcc4b-8ae3-43ef-a9fd-1fdf7e6f1e80)" mask="url(#5697e3fb-9b1b-42ed-a092-d2e52bcb3d70)" data-fill-palette-color="primary"/></svg><rect width="224.44518828451882" height="247.2" fill="none" stroke="none" visibility="hidden"/></g></svg></g></svg>